<svg xmlns="http://www.w3.org/2000/svg" xmlns:xlink="http://www.w3.org/1999/xlink" viewBox="0 0 375 374.999991" preserveAspectRatio="xMidYMid meet" version="1.2"><defs/><g id="f12561a2d5"><rect x="0" width="375" y="0" height="374.999991" style="fill:#ffffff;fill-opacity:1;stroke:none;"/><rect x="0" width="375" y="0" height="374.999991" style="fill:#f8fafc;fill-opacity:1;stroke:none;"/><g style="fill:#0f0f0f;fill-opacity:1;"><g transform="translate(63.355298, 215.623565)"><path style="stroke:none" d="M 35.109375 0 C 31.554688 0 28.429688 -0.789062 25.734375 -2.375 C 23.035156 -3.957031 20.921875 -6.082031 19.390625 -8.75 C 17.859375 -11.425781 17.09375 -14.40625 17.09375 -17.6875 L 17.09375 -46.703125 L 1.25 -46.703125 L 1.25 -58.390625 L 46.875 -58.390625 L 46.875 -46.703125 L 31.109375 -46.703125 L 31.109375 -16.4375 C 31.109375 -15.15625 31.550781 -14.039062 32.4375 -13.09375 C 33.332031 -12.144531 34.445312 -11.671875 35.78125 -11.671875 L 40.375 -11.671875 L 40.375 0 Z M 35.109375 0 "/></g></g><g style="fill:#0f0f0f;fill-opacity:1;"><g transform="translate(107.551588, 215.623565)"><path style="stroke:none" d="M 4.84375 0 L 4.84375 -42.78125 L 17.84375 -42.78125 L 17.84375 0 Z M 11.34375 -47.625 C 9.289062 -47.625 7.507812 -48.375 6 -49.875 C 4.5 -51.382812 3.75 -53.164062 3.75 -55.21875 C 3.75 -57.28125 4.5 -59.070312 6 -60.59375 C 7.507812 -62.125 9.289062 -62.890625 11.34375 -62.890625 C 13.40625 -62.890625 15.1875 -62.125 16.6875 -60.59375 C 18.1875 -59.070312 18.9375 -57.28125 18.9375 -55.21875 C 18.9375 -53.164062 18.1875 -51.382812 16.6875 -49.875 C 15.1875 -48.375 13.40625 -47.625 11.34375 -47.625 Z M 11.34375 -47.625 "/></g></g><g style="fill:#0f0f0f;fill-opacity:1;"><g transform="translate(126.146967, 215.623565)"><path style="stroke:none" d="M 4.84375 0 L 4.84375 -25.265625 C 4.84375 -28.773438 5.660156 -31.929688 7.296875 -34.734375 C 8.941406 -37.546875 11.289062 -39.753906 14.34375 -41.359375 C 17.40625 -42.972656 21.046875 -43.78125 25.265625 -43.78125 C 27.378906 -43.78125 29.328125 -43.546875 31.109375 -43.078125 C 32.890625 -42.609375 34.515625 -41.96875 35.984375 -41.15625 C 37.460938 -40.351562 38.726562 -39.394531 39.78125 -38.28125 L 39.953125 -38.28125 C 41.066406 -39.394531 42.359375 -40.351562 43.828125 -41.15625 C 45.304688 -41.96875 46.945312 -42.609375 48.75 -43.078125 C 50.5625 -43.546875 52.519531 -43.78125 54.625 -43.78125 C 58.851562 -43.78125 62.492188 -42.972656 65.546875 -41.359375 C 68.609375 -39.753906 70.972656 -37.546875 72.640625 -34.734375 C 74.316406 -31.929688 75.15625 -28.773438 75.15625 -25.265625 L 75.15625 0 L 62.140625 0 L 62.140625 -24.859375 C 62.140625 -26.242188 61.789062 -27.503906 61.09375 -28.640625 C 60.394531 -29.785156 59.460938 -30.71875 58.296875 -31.4375 C 57.128906 -32.164062 55.796875 -32.53125 54.296875 -32.53125 C 52.796875 -32.53125 51.445312 -32.164062 50.25 -31.4375 C 49.050781 -30.71875 48.117188 -29.785156 47.453125 -28.640625 C 46.785156 -27.503906 46.453125 -26.242188 46.453125 -24.859375 L 46.453125 0 L 33.53125 0 L 33.53125 -24.859375 C 33.53125 -26.242188 33.179688 -27.503906 32.484375 -28.640625 C 31.785156 -29.785156 30.835938 -30.71875 29.640625 -31.4375 C 28.453125 -32.164062 27.109375 -32.53125 25.609375 -32.53125 C 24.109375 -32.53125 22.757812 -32.164062 21.5625 -31.4375 C 20.363281 -30.71875 19.429688 -29.785156 18.765625 -28.640625 C 18.097656 -27.503906 17.765625 -26.242188 17.765625 -24.859375 L 17.765625 0 Z M 4.84375 0 "/></g></g><g style="fill:#0f0f0f;fill-opacity:1;"><g transform="translate(202.115063, 215.623565)"><path style="stroke:none" d="M 27.1875 0 C 22.351562 0 18.097656 -0.898438 14.421875 -2.703125 C 10.753906 -4.515625 7.90625 -7.019531 5.875 -10.21875 C 3.84375 -13.414062 2.828125 -17.128906 2.828125 -21.359375 C 2.828125 -26.023438 3.800781 -30.023438 5.75 -33.359375 C 7.695312 -36.691406 10.296875 -39.257812 13.546875 -41.0625 C 16.804688 -42.875 20.410156 -43.78125 24.359375 -43.78125 C 28.859375 -43.78125 32.625 -42.832031 35.65625 -40.9375 C 38.6875 -39.050781 40.976562 -36.484375 42.53125 -33.234375 C 44.09375 -29.984375 44.875 -26.273438 44.875 -22.109375 C 44.875 -21.378906 44.832031 -20.523438 44.75 -19.546875 C 44.664062 -18.578125 44.566406 -17.816406 44.453125 -17.265625 L 16.4375 -17.265625 C 16.769531 -15.816406 17.40625 -14.59375 18.34375 -13.59375 C 19.289062 -12.59375 20.488281 -11.851562 21.9375 -11.375 C 23.382812 -10.90625 24.992188 -10.671875 26.765625 -10.671875 L 39.875 -10.671875 L 39.875 0 Z M 16.09375 -25.359375 L 32.359375 -25.359375 C 32.242188 -26.242188 32.078125 -27.101562 31.859375 -27.9375 C 31.640625 -28.769531 31.289062 -29.503906 30.8125 -30.140625 C 30.34375 -30.785156 29.800781 -31.34375 29.1875 -31.8125 C 28.582031 -32.289062 27.875 -32.664062 27.0625 -32.9375 C 26.257812 -33.21875 25.359375 -33.359375 24.359375 -33.359375 C 23.078125 -33.359375 21.9375 -33.132812 20.9375 -32.6875 C 19.9375 -32.25 19.101562 -31.65625 18.4375 -30.90625 C 17.769531 -30.15625 17.253906 -29.289062 16.890625 -28.3125 C 16.523438 -27.34375 16.257812 -26.359375 16.09375 -25.359375 Z M 16.09375 -25.359375 "/></g></g><g style="fill:#0f0f0f;fill-opacity:1;"><g transform="translate(245.727613, 215.623565)"><path style="stroke:none" d="M 27.1875 0 C 22.351562 0 18.097656 -0.898438 14.421875 -2.703125 C 10.753906 -4.515625 7.90625 -7.019531 5.875 -10.21875 C 3.84375 -13.414062 2.828125 -17.128906 2.828125 -21.359375 C 2.828125 -26.023438 3.800781 -30.023438 5.75 -33.359375 C 7.695312 -36.691406 10.296875 -39.257812 13.546875 -41.0625 C 16.804688 -42.875 20.410156 -43.78125 24.359375 -43.78125 C 28.859375 -43.78125 32.625 -42.832031 35.65625 -40.9375 C 38.6875 -39.050781 40.976562 -36.484375 42.53125 -33.234375 C 44.09375 -29.984375 44.875 -26.273438 44.875 -22.109375 C 44.875 -21.378906 44.832031 -20.523438 44.75 -19.546875 C 44.664062 -18.578125 44.566406 -17.816406 44.453125 -17.265625 L 16.4375 -17.265625 C 16.769531 -15.816406 17.40625 -14.59375 18.34375 -13.59375 C 19.289062 -12.59375 20.488281 -11.851562 21.9375 -11.375 C 23.382812 -10.90625 24.992188 -10.671875 26.765625 -10.671875 L 39.875 -10.671875 L 39.875 0 Z M 16.09375 -25.359375 L 32.359375 -25.359375 C 32.242188 -26.242188 32.078125 -27.101562 31.859375 -27.9375 C 31.640625 -28.769531 31.289062 -29.503906 30.8125 -30.140625 C 30.34375 -30.785156 29.800781 -31.34375 29.1875 -31.8125 C 28.582031 -32.289062 27.875 -32.664062 27.0625 -32.9375 C 26.257812 -33.21875 25.359375 -33.359375 24.359375 -33.359375 C 23.078125 -33.359375 21.9375 -33.132812 20.9375 -32.6875 C 19.9375 -32.25 19.101562 -31.65625 18.4375 -30.90625 C 17.769531 -30.15625 17.253906 -29.289062 16.890625 -28.3125 C 16.523438 -27.34375 16.257812 -26.359375 16.09375 -25.359375 Z M 16.09375 -25.359375 "/></g></g><g style="fill:#10b981;fill-opacity:1;"><g transform="translate(289.351381, 215.623565)"><path style="stroke:none" d="M 11.171875 1 C 8.953125 1 7.050781 0.207031 5.46875 -1.375 C 3.882812 -2.957031 3.09375 -4.832031 3.09375 -7 C 3.09375 -9.226562 3.882812 -11.132812 5.46875 -12.71875 C 7.050781 -14.300781 8.953125 -15.09375 11.171875 -15.09375 C 13.335938 -15.09375 15.210938 -14.300781 16.796875 -12.71875 C 18.390625 -11.132812 19.1875 -9.226562 19.1875 -7 C 19.1875 -5.5625 18.820312 -4.226562 18.09375 -3 C 17.375 -1.78125 16.414062 -0.804688 15.21875 -0.078125 C 14.019531 0.640625 12.671875 1 11.171875 1 Z M 11.171875 1 "/></g></g></g></svg>